<svg xmlns="http://www.w3.org/2000/svg" viewBox="0 0 100 100">
  <circle cx="50" cy="50" r="46" fill="none" stroke="#D4AF37" stroke-width="2.5"/>
  <path d="M50 75 L50 96" stroke="#D4AF37" stroke-width="2.5" stroke-linecap="round" />
  <path d="M30 85 L15 92" stroke="#D4AF37" stroke-width="2.5" stroke-linecap="round" />
  <path d="M70 85 L85 92" stroke="#D4AF37" stroke-width="2.5" stroke-linecap="round" />
  <path d="M55,25 C45,25 35,35 35,50 C35,60 40,70 50,75 C52,76 55,72 55,70 C55,68 53,65 50,62 C45,58 42,50 45,40 C48,30 55,28 60,30 C65,32 68,40 65,50 C63,60 58,65 55,70 C55,75 60,80 65,75 C75,65 80,50 75,35 C70,25 65,25 55,25 Z" fill="#D4AF37" />
</svg>
